TITLE ""
FILE "Step3_Track26.mp3" MP3
  TRACK 01 AUDIO
    TITLE "Step3_Track26_01"
    INDEX 01 00:00:00
  TRACK 02 AUDIO
    TITLE "Step3_Track26_02"
    INDEX 01 00:00:22
  TRACK 03 AUDIO
    TITLE "Step3_Track26_03"
    INDEX 01 00:01:72
  TRACK 04 AUDIO
    TITLE "Step3_Track26_04"
    INDEX 01 00:02:50
  TRACK 05 AUDIO
    TITLE "Step3_Track26_05"
    INDEX 01 00:03:48
  TRACK 06 AUDIO
    TITLE "Step3_Track26_06"
    INDEX 01 00:03:63
  TRACK 07 AUDIO
    TITLE "Step3_Track26_07"
    INDEX 01 00:06:21
  TRACK 08 AUDIO
    TITLE "Step3_Track26_08"
    INDEX 01 00:06:46
  TRACK 09 AUDIO
    TITLE "Step3_Track26_09"
    INDEX 01 00:07:44
  TRACK 10 AUDIO
    TITLE "Step3_Track26_10"
    INDEX 01 00:07:67
  TRACK 11 AUDIO
    TITLE "Step3_Track26_11"
    INDEX 01 00:09:74
  TRACK 12 AUDIO
    TITLE "Step3_Track26_12"
    INDEX 01 00:10:13
  TRACK 13 AUDIO
    TITLE "Step3_Track26_13"
    INDEX 01 00:11:08
  TRACK 14 AUDIO
    TITLE "Step3_Track26_14"
    INDEX 01 00:11:30
  TRACK 15 AUDIO
    TITLE "Step3_Track26_15"
    INDEX 01 00:13:38
  TRACK 16 AUDIO
    TITLE "Step3_Track26_16"
    INDEX 01 00:13:54
  TRACK 17 AUDIO
    TITLE "Step3_Track26_17"
    INDEX 01 00:14:52
  TRACK 18 AUDIO
    TITLE "Step3_Track26_18"
    INDEX 01 00:14:65
  TRACK 19 AUDIO
    TITLE "Step3_Track26_19"
    INDEX 01 00:16:74
  TRACK 20 AUDIO
    TITLE "Step3_Track26_20"
    INDEX 01 00:17:21
  TRACK 21 AUDIO
    TITLE "Step3_Track26_21"
    INDEX 01 00:18:14
  TRACK 22 AUDIO
    TITLE "Step3_Track26_22"
    INDEX 01 00:18:38
  TRACK 23 AUDIO
    TITLE "Step3_Track26_23"
    INDEX 01 00:20:68
  TRACK 24 AUDIO
    TITLE "Step3_Track26_24"
    INDEX 01 00:21:01
  TRACK 25 AUDIO
    TITLE "Step3_Track26_25"
    INDEX 01 00:22:02
  TRACK 26 AUDIO
    TITLE "Step3_Track26_26"
    INDEX 01 00:22:20
  TRACK 27 AUDIO
    TITLE "Step3_Track26_27"
    INDEX 01 00:24:70
  TRACK 28 AUDIO
    TITLE "Step3_Track26_28"
    INDEX 01 00:24:73
  TRACK 29 AUDIO
    TITLE "Step3_Track26_29"
    INDEX 01 00:26:02
  TRACK 30 AUDIO
    TITLE "Step3_Track26_30"
    INDEX 01 00:26:08
  TRACK 31 AUDIO
    TITLE "Step3_Track26_31"
    INDEX 01 00:28:34
  TRACK 32 AUDIO
    TITLE "Step3_Track26_32"
    INDEX 01 00:28:44
  TRACK 33 AUDIO
    TITLE "Step3_Track26_33"
    INDEX 01 00:29:35
  TRACK 34 AUDIO
    TITLE "Step3_Track26_34"
    INDEX 01 00:29:49
  TRACK 35 AUDIO
    TITLE "Step3_Track26_35"
    INDEX 01 00:32:32
  TRACK 36 AUDIO
    TITLE "Step3_Track26_36"
    INDEX 01 00:32:44
  TRACK 37 AUDIO
    TITLE "Step3_Track26_37"
    INDEX 01 00:33:43
  TRACK 38 AUDIO
    TITLE "Step3_Track26_38"
    INDEX 01 00:33:65
  TRACK 39 AUDIO
    TITLE "Step3_Track26_39"
    INDEX 01 00:36:04
  TRACK 40 AUDIO
    TITLE "Step3_Track26_40"
    INDEX 01 00:36:12
  TRACK 41 AUDIO
    TITLE "Step3_Track26_41"
    INDEX 01 00:37:08
  TRACK 42 AUDIO
    TITLE "Step3_Track26_42"
    INDEX 01 00:37:29
  TRACK 43 AUDIO
    TITLE "Step3_Track26_43"
    INDEX 01 00:40:18
